<?xml version="1.0" encoding="UTF-8"?>
<svg id="_레이어_2" data-name="레이어 2" xmlns="http://www.w3.org/2000/svg" viewBox="0 0 105.32 19.84">
  <defs>
    <style>
      .cls-1 {
        fill: #7c7366;
      }

      .cls-2 {
        fill: #f8b500;
      }
    </style>
  </defs>
  <g id="_레이어_1-2" data-name="레이어 1">
    <g>
      <path class="cls-2" d="M27.4,10.18s-.24-.15-.24-.15c-.82-.82-1.97-1.17-3.5-1.08-1.27.08-2.28.58-3.05,1.05,0-.01,0-.02,0-.03,0-.4.04-.83.09-1.25.04-.43.09-.86.09-1.27s-.05-.82-.19-1.16c-.04-.09-.12-.14-.22-.14-.41,0-1.21.29-1.41.46,0,0-.11.23-.11.23,0,.46-.11,1.73-.21,1.88,0,0-.05.15-.05.15-.17,1.82-.18,3.41-.02,4.79.02.14.28.34.49.42.22.08.92-.11,1.33-.26,0,0,.15-.02.15-.02.13-.01.2-.12.2-.27,0,0,0-.39,0-.39.29-1.18,1.47-2.6,2.86-2.81.79-.13,1.41.08,1.9.61.07.1.21.95-.31,1.93-.39.72-1.16,1.34-2.18,1.72-.96.37-2.02.51-3.33.47-.05-.03-1.22-.83-1.22-.83-1.04-.73-2.33-1.64-3.5-2.08-.21-.08-.57-.38-.79-.57l-.12-.1c-.67-.54-1.96-1.4-2.99-2.08,0,0-.46-.31-.55-.37,0-.04,0-.12,0-.12.03-.03.68-.42.68-.42.91-.53,1.33-.79,1.41-.92-.02.02.12-.07.12-.07,0,0,2.25-1.27,2.25-1.27,2.16-1.18,4.6-2.53,5.88-3.86,0,0,.06-.2.06-.2l.03-.18c.09-.28.09-.5.02-.75-.02-.07-.08-.16-.17-.17-1-.1-2.29.5-3.47,1.6-.27.25-.49.37-.72.5l-.18.1c-1.3.74-4.22,2.55-5.75,3.53.1-1.64.41-3.98.78-5.94l-.04-.23s-.16-.3-.16-.3l-.12-.21h-.03c-.31-.16-.55-.1-.74-.06l-.31.11-.41.15c-.08.02-.14.07-.17.14-.73,1.77-1.34,4.67-1.48,6.99-1.46-.93-2.81-1.6-3.47-1.92h-.02s-.08-.03-.08-.03c-.24-.03-.53-.21-.81-.38-.03-.02-.56-.36-.56-.36l-.85-.54s-.22-.05-.22-.05c-.36.06-1.06.53-1.27.85-.03.04-.04.09-.04.14,0,.07.02.14.04.2l.04.17.04.1c.41.42,1.43,1.11,2.44,1.65l1.17.62,1.79.98s.3.24.3.24l.21.12s.02.01.04.02c-.48.32-3.25,2.17-3.25,2.17l-1.71,1.13c-.16.11-.84.41-.98.47-.37.15-.65.38-.77.63l-.05.1.05.07.13.1s.17.11.17.11l.19.13s.18.03.18.03c.3.01.74-.16,1.58-.52.76-.34,2.84-1.59,3.72-2.12l.38-.23c.16.01.33-.12.48-.23.18-.14.56-.38.8-.48,0,0,.14-.08.27-.15,0,.04,0,.1,0,.1.04,2.71.19,4.68.49,6.2v.03s.03.06.03.06c.15.21.31.86.46,1.42l.34,1.13s.1.11.1.11c.19.13.78.36,1.17.31h.1s.06-.15.06-.15c.03-.17.05-.34.05-.52,0-.21-.02-.43-.03-.71l-.03-.41c-.12-1.89-.25-4.63-.25-6.44v-.14c.32.2,1.73,1.09,1.73,1.09,2.39,1.55,6.01,3.9,8.2,4.52.11.03.23,0,.32-.07,0,0,.34-.22.34-.22l.06-.03c.13-.06.21-.27.22-.5,1.84-.09,4.41-.8,5.79-2.53.53-.67.77-1.49.77-2.19,0-.58-.16-1.07-.45-1.35"/>
      <g>
        <path class="cls-1" d="M48.8,2.78h6.63c3.15,0,4.8,1.05,4.8,3.34,0,1.63-1.14,2.75-2.65,3.05v.06c2.17.26,3.2,1.68,3.2,3.29,0,2.02-1.47,3.76-5.14,3.76h-6.84V2.78ZM50.95,8.46h4.38c1.63,0,2.83-.62,2.83-2.05,0-1.26-.59-2.09-3.07-2.09h-4.13v4.15ZM50.95,14.74h4.24c2.63,0,3.33-1.03,3.33-2.34,0-1.55-1.07-2.41-3.44-2.41h-4.13v4.74Z"/>
        <polygon class="cls-1" points="34.2 2.78 36.36 2.78 36.36 8.82 43.61 2.78 46.66 2.78 39 8.87 47.3 16.27 44.25 16.27 36.36 9.04 36.36 16.27 34.2 16.27 34.2 2.78"/>
      </g>
      <path class="cls-1" d="M73.17,8.37v1.44h-8.75v-1.44h1.19v-3.94h-1.19v-1.44h8.56v1.44h-1.31v3.94h1.5ZM76.52,16.22h-10.65v-4.94h1.68v3.5h8.97v1.44ZM67.28,8.37h2.75v-3.94h-2.75v3.94ZM74.67,2.78h1.7v9.84h-1.7V2.78Z"/>
      <path class="cls-1" d="M83.86,8.18h-3.64v2.18h4.84v1.44h-6.51V3.12h6.03v1.44h-4.37v2.18h3.64v1.44ZM84.53,6.47h1.78v-3.69h1.63v13.07h-1.63v-7.92h-1.78v-1.46ZM90.72,2.78v13.49h-1.63V2.78h1.63Z"/>
      <path class="cls-1" d="M92.37,15.1v-1.44h10.06v-4.43h-8.97v-1.44h8.97v-3.08h-8.97v-1.46h10.64v10.42h1.22v1.44h-12.95Z"/>
    </g>
  </g>
</svg>