<?xml version="1.0" encoding="UTF-8"?>
<svg id="_레이어_2" data-name="레이어 2" xmlns="http://www.w3.org/2000/svg" viewBox="0 0 108.36 16.72">
  <defs>
    <style>
      .cls-1 {
        fill: #7c7366;
      }

      .cls-2 {
        fill: #f8b500;
      }
    </style>
  </defs>
  <g id="_레이어_1-2" data-name="레이어 1">
    <g>
      <g>
        <path class="cls-2" d="M23.1,8.58l-.2-.13c-.69-.69-1.66-.99-2.95-.92-1.07.07-1.92.49-2.57.89,0,0,0-.02,0-.03,0-.34.04-.7.08-1.05.04-.36.08-.73.08-1.07s-.04-.69-.16-.97c-.03-.07-.1-.12-.18-.12-.35,0-1.02.25-1.19.39l-.09.2c0,.38-.09,1.46-.17,1.59,0,0-.05.13-.05.13-.15,1.53-.15,2.88-.01,4.03.01.12.24.29.41.35.19.07.78-.09,1.12-.22,0,0,.13-.02.13-.02.11-.01.17-.1.16-.23,0,0,0-.33,0-.33.25-1,1.24-2.19,2.42-2.37.66-.11,1.19.06,1.6.52.06.08.18.8-.26,1.62-.33.61-.98,1.12-1.84,1.45-.81.31-1.71.43-2.81.39-.04-.03-1.03-.7-1.03-.7-.87-.61-1.96-1.38-2.95-1.75-.17-.07-.48-.32-.67-.48l-.1-.08c-.57-.46-1.65-1.18-2.52-1.75,0,0-.39-.26-.47-.31,0-.03,0-.1,0-.1.02-.03.57-.35.57-.35.76-.45,1.12-.67,1.19-.78-.02.02.1-.06.1-.06,0,0,1.89-1.07,1.89-1.07,1.82-1,3.88-2.13,4.96-3.25,0,0,.05-.17.05-.17l.02-.15c.07-.24.08-.42.02-.64-.02-.06-.07-.13-.15-.15-.84-.08-1.93.42-2.93,1.35-.22.21-.41.31-.61.42l-.15.08c-1.09.62-3.56,2.15-4.85,2.97.08-1.39.34-3.36.66-5l-.04-.2s-.13-.25-.13-.25l-.1-.18h-.03c-.26-.14-.47-.08-.62-.05,0,0-.26.09-.26.09l-.34.12c-.07.01-.12.05-.14.12-.62,1.49-1.13,3.94-1.25,5.89-1.23-.78-2.37-1.35-2.93-1.62h-.02s-.07-.02-.07-.02c-.2-.03-.44-.17-.68-.32-.02-.01-.47-.3-.47-.3l-.72-.46s-.19-.04-.19-.04c-.31.05-.9.45-1.07.72-.02.04-.03.07-.03.12,0,.06.02.11.03.17l.03.15.03.09c.34.35,1.21.94,2.06,1.39l.98.52,1.5.82s.26.2.26.2c0,0,.18.1.18.1,0,0,.02.01.03.02-.4.27-2.74,1.83-2.74,1.83l-1.44.95c-.14.09-.7.35-.83.4-.31.13-.55.32-.65.53l-.04.08.04.06.11.08s.15.1.15.1l.16.11s.15.02.15.02c.25.01.63-.13,1.33-.44.64-.29,2.39-1.34,3.14-1.79l.32-.19c.13.01.28-.1.41-.2.15-.12.48-.32.68-.41,0,0,.12-.07.22-.12,0,.03,0,.09,0,.09.03,2.29.17,3.95.41,5.23v.02s.03.05.03.05c.12.18.26.72.39,1.2l.28.95s.08.09.08.09c.16.11.66.3.99.26h.08s.05-.13.05-.13c.03-.14.04-.28.04-.44,0-.17-.01-.37-.03-.6l-.02-.34c-.1-1.59-.21-3.9-.21-5.43,0-.04,0-.08,0-.12.27.17,1.46.92,1.46.92,2.02,1.31,5.07,3.29,6.91,3.81.1.03.2,0,.27-.06,0,0,.28-.18.28-.18l.05-.02c.11-.05.18-.23.19-.42,1.55-.08,3.72-.68,4.88-2.13.45-.56.65-1.26.65-1.85,0-.48-.13-.9-.38-1.13Z"/>
        <path class="cls-1" d="M41.13,2.34h5.59c2.66,0,4.05.88,4.05,2.81,0,1.37-.96,2.32-2.23,2.57v.05c1.83.22,2.69,1.42,2.69,2.77,0,1.7-1.24,3.17-4.33,3.17h-5.77V2.34ZM42.94,7.13h3.69c1.37,0,2.38-.52,2.38-1.73,0-1.06-.5-1.76-2.59-1.76h-3.48v3.49ZM42.94,12.42h3.57c2.22,0,2.81-.87,2.81-1.97,0-1.31-.9-2.03-2.9-2.03h-3.48v4Z"/>
        <polygon class="cls-1" points="28.83 2.34 30.64 2.34 30.64 7.43 36.76 2.34 39.33 2.34 32.87 7.48 39.86 13.71 37.29 13.71 30.64 7.62 30.64 13.71 28.83 13.71 28.83 2.34"/>
      </g>
      <polygon class="cls-1" points="58.16 4.01 58.16 6.99 61.64 6.99 61.64 8.66 58.16 8.66 58.16 13.71 56.34 13.71 56.34 2.34 64.15 2.34 64.15 4.01 58.16 4.01"/>
      <path class="cls-1" d="M74.54,13.71v-4.82c0-1.72-.69-2.34-1.87-2.34s-1.87.8-1.87,2.18v4.98h-1.78V5.19h1.78v.81c.45-.62,1.35-.99,2.28-.99,2.11,0,3.24,1.3,3.24,3.81v4.89h-1.78Z"/>
      <g>
        <rect class="cls-1" x="65.37" y="5.16" width="1.79" height="8.56"/>
        <rect class="cls-1" x="65.37" y="2.34" width="1.79" height="1.68"/>
      </g>
      <path class="cls-1" d="M82.37,13.53c-.43.23-1.03.39-1.74.39-1.26,0-2.04-.73-2.04-2.25v-4.91h-1.29v-1.52h1.29v-2.43l1.74-.88v3.31h2.25v1.52h-2.25v4.62c0,.79.28,1.02.93,1.02.47,0,.98-.16,1.31-.34l-.21,1.47Z"/>
      <path class="cls-1" d="M100.88,2.84l1.83-.85v4.94c.22-.31.54-.56.98-.74.41-.18.87-.26,1.35-.26,1.09,0,1.91.32,2.48.96.56.66.84,1.64.84,2.93v3.9h-1.83v-3.84c0-.88-.18-1.5-.5-1.86-.35-.35-.82-.53-1.4-.53s-1.09.21-1.4.59c-.34.4-.5.94-.5,1.64v4h-1.83V2.84h0Z"/>
      <path class="cls-1" d="M91.21,10.07h-6.01c.19,1.64,1.18,2.34,2.28,2.34.76,0,1.37-.26,1.98-.68l1.06,1.07c-.8.72-1.75,1.12-3.13,1.12-2.13,0-3.93-1.61-3.93-4.44s1.63-4.45,3.98-4.45c2.58,0,3.83,1.97,3.83,4.27,0,.31-.03.59-.05.76M87.32,6.55c-1.2,0-1.92.78-2.08,2.14h4.23c-.09-1.17-.67-2.14-2.15-2.14"/>
      <path class="cls-1" d="M98.5,7.67c-.74-.72-1.4-1.04-2.22-1.04-1.3,0-2.13,1.09-2.13,2.83s.76,2.87,2.18,2.87c.85,0,1.35-.36,2.06-1.06l1.14,1.06c-.71.84-1.61,1.59-3.26,1.59-2.21,0-3.93-1.76-3.93-4.42,0-2.82,1.76-4.46,3.99-4.46,1.33,0,2.37.5,3.22,1.45l-1.06,1.18Z"/>
    </g>
  </g>
</svg>