<?xml version="1.0" encoding="UTF-8"?>
<svg id="_레이어_2" data-name="레이어 2" xmlns="http://www.w3.org/2000/svg" viewBox="0 0 53.86 40.78">
  <defs>
    <style>
      .cls-1 {
        fill: #7c7366;
      }

      .cls-2 {
        fill: #f18700;
      }

      .cls-3 {
        fill-rule: evenodd;
      }

      .cls-3, .cls-4 {
        fill: #d2c8b9;
      }

      .cls-5 {
        fill: #f8b500;
      }
    </style>
  </defs>
  <g id="_레이어_1-2" data-name="레이어 1">
    <g>
      <path class="cls-1" d="M.96,22.13c.2,0,.4-.04.6-.05.2-.01.39-.01.59,0,.05,0,.13,0,.18.01.01.05-.02.12-.02.17,0,.29-.09.6-.19.88-.13.34.28.64.43.24.07-.18.14-.36.18-.55.04-.19.08-.38.09-.58.01-.24.01-.6-.23-.74-.22-.12-.55-.05-.78-.05-.29,0-.57.02-.86.03-.3,0-.32.65.02.65"/>
      <path class="cls-1" d="M3.42,24.06c-.33,0-.62-.03-.95,0-.01,0-.07.01-.09.01-.02,0-.06,0-.08,0-.22.01-.42,0-.64.02-.22.01-.41.07-.63.08-.22.01-.47.01-.69.01-.33,0-.51.51-.09.51.29,0,.55-.01.84-.03.28-.02.56-.01.85-.03-.06.22-.07.43-.13.65-.07.22-.17.43-.26.64-.01.02-.02.06-.02.09-.17.03-.34.05-.49.05-.33,0-.53.51-.11.49.25,0,.5-.05.75-.09.25-.03.5-.08.75-.08.04,0,.08.02.11.02.02,0,.01.05.02.05,0,0,0,0,0,.01.02.12.05.26.05.38-.02.25-.12.49-.13.74,0,.34.62.15.63-.16,0-.22.11-.54.12-.83,0-.31-.07-.6-.38-.7-.21-.06-.42-.06-.65-.04.08-.21.1-.43.16-.65.07-.22.14-.45.21-.67.25-.01.51,0,.76,0,.33,0,.51-.5.09-.5"/>
      <path class="cls-1" d="M6.12,24.82c.11-.06.18-.2.11-.31,0,0,0-.02,0-.02.03-.3.05-.6.06-.9,0-.3.03-.6,0-.9-.03-.25-.32-.32-.61-.33-.29,0-.6.03-.74.07-.03,0-.04.05-.06.07v-.02c-.19.02-.27.17-.31.33-.06.24-.13.48-.16.72-.03.24-.08.49-.08.73,0,.24.03.49.03.74,0,.17.12.22.26.16.27,0,.53-.03.78-.07.25-.04.49-.13.73-.27M5.65,22.96s.06.03.07.03c0,.08,0,.16.01.24.01.22.01.43,0,.65,0,.21-.05.42-.07.63-.24.11-.51.14-.77.13,0-.28.02-.56.04-.84.02-.28.02-.57.07-.84.2-.04.42-.05.64,0"/>
      <path class="cls-1" d="M7.7,24.96c.05-.29.11-.59.13-.88.02-.3,0-.59,0-.89,0-.3.04-.59.04-.89,0-.4-.52-.36-.52.04,0,.28,0,.56,0,.83,0,.28-.02.55-.04.83-.02.27-.03.55-.08.83-.06.36.4.54.47.13"/>
      <path class="cls-1" d="M7.66,26.39c-.16.11-.35.18-.55.23-.19.05-.39.07-.58.09-.09,0-.18-.02-.27-.03-.02,0-.05.02-.06.02,0-.2.11-.42.18-.6.12-.29-.47-.51-.59-.21-.11.27-.2.56-.17.8.03.25.18.45.56.51.2.03.43.05.66.03.22-.02.43-.09.64-.16.22-.07.43-.15.61-.26.31-.21-.18-.58-.43-.41"/>
      <path class="cls-1" d="M9.29,24.15c.22.08.43.06.61-.03.18-.09.32-.26.39-.47.08-.22.04-.42-.08-.58-.12-.16-.31-.28-.51-.33-.2-.05-.4-.02-.56.07-.16.09-.27.24-.33.45-.09.37.1.77.46.89M9.63,23.16c.31.08.08.7-.17.59-.19-.08-.11-.66.17-.59"/>
      <path class="cls-1" d="M11.15,22.96c0,.22-.03.43-.04.65,0,.22.02.43,0,.65,0,.22-.04.41-.05.63-.27.05-.52.09-.78.12-.27.03-.54.06-.8.08-.27.02-.53.08-.8.1-.28.03-.44.5-.08.47.28-.03.55-.04.83-.06.27-.02.55-.02.83-.05.27-.03.56-.11.83-.16,0,.17,0,.36,0,.52,0,.32.59.29.59.01,0-.25-.04-.49-.03-.74,0-.24.03-.49.04-.74.01-.25.01-.49.02-.74,0-.25.05-.49.05-.74,0-.32-.6-.29-.6-.01"/>
      <path class="cls-1" d="M15.98,21.95c-.27-.04-.54-.1-.81-.09-.27,0-.54.02-.81.05-.27.03-.53.11-.8.16-.3.06-.3.69.03.63.26-.05.51-.12.76-.16.26-.03.51-.04.77-.05.26,0,.51.05.77.09.32.04.41-.59.09-.63"/>
      <path class="cls-1" d="M14.16,24.77c.16-.07.25-.23.25-.39,0-.38,0-.76.04-1.14.05-.42-.48-.26-.52.07-.03.21-.04.43-.05.65,0,.21-.04.43-.04.65,0,.15.18.22.31.17"/>
      <path class="cls-1" d="M15.84,25.05c-.27.08-.55.09-.83.11.13-.17.23-.34.31-.55.07-.2.14-.41.17-.63.03-.2.03-.42.04-.65.01-.37-.47-.51-.49-.09,0,.24-.01.47-.06.68-.05.23-.14.45-.25.64-.11.19-.28.35-.47.48-.17.12-.38.2-.62.26-.32.08-.2.72.11.64.24-.07.49-.09.73-.11.24-.02.49-.02.74-.05.24-.02.48-.08.72-.15.31-.09.2-.69-.1-.6"/>
      <path class="cls-1" d="M16.55,23.54c.34-.02.68-.04,1.02-.04.32,0,.25-.64-.07-.63-.34,0-.68,0-1.02.02-.32.02-.25.67.07.65"/>
      <path class="cls-1" d="M18.1,22.34c.03.27.06.53.06.8,0,.27-.02.53-.03.79-.29.04-.58.06-.87.09-.29.03-.58.08-.87.13-.3.06-.24.66.1.6.27-.05.54-.06.81-.09.27-.03.55-.07.82-.1-.02.21-.07.43-.08.64-.04.42.51.34.54-.02.02-.25,0-.51.02-.76.02-.25.06-.5.07-.76,0-.25,0-.51,0-.76,0-.25-.08-.5-.11-.75-.05-.42-.49-.15-.45.18"/>
      <path class="cls-1" d="M17.93,25.95s-.04-.02-.06-.02c-.01,0-.02-.04-.03-.05-.26-.07-.51-.02-.71.09-.2.11-.36.3-.45.55-.09.23-.12.48-.05.71.07.23.22.42.48.51.26.09.52.07.74-.02.23-.1.4-.28.52-.53.1-.23.11-.48.03-.71-.08-.23-.23-.41-.47-.52M17.36,27.31c-.17-.04-.2-.32-.14-.56.06-.24.22-.44.39-.39.18.11.24.35.19.56-.05.23-.22.44-.45.39"/>
      <path class="cls-1" d="M21.54,24.59c-.17-.12-.32-.27-.47-.42-.14-.15-.28-.32-.45-.44.14-.26.3-.51.39-.8.09-.29-.37-.73-.49-.35-.07.24-.15.47-.27.69-.12.22-.28.41-.41.62-.13.21-.24.43-.36.65-.14.26.21.78.39.46.14-.24.28-.47.43-.7.28.24.48.55.79.76.25.17.73-.26.45-.45"/>
      <path class="cls-1" d="M24.1,21.88c0,.35,0,.71,0,1.06-.06-.01-.14,0-.19,0-.36.03-.74.07-1.1.11-.02-.33-.04-.68-.09-1.01-.06-.39-.53-.35-.47.05.04.28.08.55.1.83.02.28.02.56.02.84,0,.28.02.56.01.84-.01.36.43.54.45.12.01-.35.05-.7.04-1.05,0,0-.01-.03,0-.03.38-.05.76-.06,1.14-.09.03,0,.06,0,.09-.01,0,.32-.04.63-.04.95,0,.4.49.42.49.02,0-.29.04-.58.04-.87s-.02-.58-.02-.87,0-.58,0-.87c0-.4-.47-.42-.47-.02"/>
      <path class="cls-1" d="M23.67,25.5s-.08-.04-.12-.05c-.08-.05-.2-.05-.29-.04-.25.03-.48.2-.66.42-.18.21-.33.47-.35.72-.02.27.09.53.36.69.22.12.51.13.77.06.26-.08.51-.24.63-.45.14-.23.14-.49.07-.73-.07-.24-.2-.47-.41-.62M23.43,26.55c-.05.17-.31.39-.49.25-.13-.1,0-.4.05-.5.06-.13.17-.3.3-.38.16.16.21.4.14.63"/>
      <path class="cls-1" d="M1.94,30.95c.39,0,.77,0,1.16-.03.39-.02.78,0,1.16.06.3.05.35.06.31.33-.04.27-.06.54-.13.8-.07.26-.17.52-.26.77-.1.26.06.5.24.64.2.15.48.17.6-.18.09-.24.21-.53.3-.84.09-.28.13-.59.16-.88.03-.31.01-.61-.08-.88-.09-.27-.25-.54-.55-.71-.29-.17-.65-.18-1.01-.21-.34-.02-.69-.02-1.04,0-.36.03-.72.1-1.03.1-.29,0-.36.26-.31.54.05.26.19.48.47.48"/>
      <path class="cls-1" d="M5.79,34.3c-.34.03-.69.02-1.03.04-.34.02-.63.05-.97.07-.34.02-.74,0-1.08,0-.34.01-.68.07-1.02.08-.34.01-.68.07-1.02.09-.25.01-.49.25-.41.5.09.28.4.39.67.38.34-.02.69-.01,1.03-.03.34-.01.7-.1,1.04-.11.34-.01.67,0,1.01-.02.34-.01.69,0,1.03-.03.34-.02.69-.03,1.03-.07.4-.04.47-.34.38-.56-.09-.21-.32-.38-.64-.35"/>
      <path class="cls-1" d="M5.5,36.71c-.23-.14-.53-.18-.82-.19-.29,0-.58.02-.84.04-.27.02-.57.07-.86.11-.3.04-.57.08-.84.09-.26-.14-.58-.01-.58.43,0,.3-.03.61-.03.91,0,.3,0,.61,0,.91.01.3.03.61.07.91,0,0,.04.01.04.02.01.27.15.52.42.55.37.04.74.13,1.12.14.38.01.75-.05,1.13-.07.37-.02.75-.02,1.12-.08.16-.03.24-.22.26-.36.04-.29.16-.56.2-.85.04-.29.05-.58.07-.86.02-.27.01-.6-.04-.9-.06-.31-.14-.62-.42-.79M2.48,39.43c-.02-.27-.01-.5-.01-.77,0-.27,0-.51,0-.77.29-.02.54-.05.83-.09.29-.04.57-.08.85-.1.28-.02.57-.07.85-.04.04,0,.07.03.11.03.03.21-.01.46-.03.67-.04.35-.09.69-.14,1.04-.41.05-.82.11-1.23.12-.41,0-.81-.06-1.22-.09"/>
      <path class="cls-1" d="M10.82,32.72c.43,0,.81-.17,1.1-.42.29-.25.49-.6.55-1.01.07-.43-.07-.8-.34-1.07-.27-.27-.66-.46-1.09-.48-.02,0-.03.02-.04.02-.04,0-.07-.04-.1-.04-.29.01-.58.09-.83.2-.26.12-.49.31-.65.53-.16.21-.26.48-.29.77-.03.3.04.59.19.81.15.23.4.39.67.51.25.12.54.19.83.18M10.23,31.26c.05-.43.38-.7.8-.74.4.05.49.44.38.79-.1.32-.38.63-.71.66-.4.04-.5-.41-.47-.7"/>
      <path class="cls-1" d="M13.25,33.46c-.37,0-.74,0-1.11,0-.37,0-.73.02-1.1.04-.37.02-.73.05-1.1.07-.36.02-.73.03-1.1.04-.37.01-.73.09-1.1.09-.24,0-.57.2-.5.46.08.28.47.36.73.36.33,0,.63,0,.97-.02-.04.34.02.66.03,1,.01.34.06.67.14,1,.07.3.32.34.59.22.25-.11.47-.34.41-.59-.07-.28-.13-.56-.15-.85-.01-.28,0-.6.03-.88.35-.02.72-.03,1.07-.05.35-.02.7,0,1.05,0,.35,0,.7-.05,1.05-.04.35,0,.6-.15.63-.35.03-.21-.18-.48-.55-.49"/>
      <path class="cls-1" d="M12.33,36.55c0-.48.19-.94.21-1.42,0-.23-.09-.56-.39-.54-.27.01-.51.33-.51.58-.02.48-.18.94-.19,1.42,0,.23.09.53.39.52.27-.01.49-.31.5-.55"/>
      <path class="cls-1" d="M10.99,37.46s-.01,0-.02,0c-.07-.02-.16.02-.26.07-.28.12-.51.29-.7.49-.2.21-.35.45-.44.72-.08.26-.13.55-.11.84.03.44.29.77.61.98.33.2.75.28,1.18.19.29-.07.56-.18.76-.35.22-.17.39-.41.49-.66.11-.24.15-.52.13-.8-.03-.44-.24-.78-.54-1.02-.3-.24-.69-.41-1.12-.44M11.2,39.64c-.46.1-.7-.06-.77-.33-.07-.26.04-.59.41-.77.03,0,.06.01.09.01.37.02.66.24.76.48.1.25-.01.49-.49.6"/>
      <path class="cls-1" d="M16.12,36.26c.03.24.31.46.56.36.27-.11.38-.47.35-.73-.04-.26-.05-.53-.08-.79-.03-.26-.11-.52-.13-.78-.03-.37-.13-1.01.15-1.32,0,0,.01-.04.02-.05.41,0,.82.04,1.23.05.41,0,.82.04,1.23.05.27,0,.47-.27.5-.54.04-.27-.09-.5-.4-.51-.36-.01-.71-.04-1.06-.04-.35,0-.71-.02-1.06-.02s-.71-.07-1.07-.06c-.35,0-.71.02-1.07.03-.27,0-.42.31-.46.58-.04.28.05.54.36.53.27,0,.53,0,.8,0-.1.33-.16.7-.15,1.08,0,.36.09.73.14,1.08.06.39.1.76.14,1.08"/>
      <path class="cls-1" d="M19.75,36.29c-.36.21-.74.34-1.13.46.11-.27.21-.53.27-.82.05-.29.05-.59.07-.88.02-.29.05-.59.05-.88,0-.24-.22-.47-.49-.4-.28.08-.39.38-.39.65,0,.3-.05.61-.08.9-.02.3-.07.6-.15.89-.09.29-.2.58-.39.83-.27.04-.55,0-.82.01-.27.01-.54.09-.8.08-.29,0-.45.23-.47.5-.02.28.12.58.4.59.37.01.75.01,1.12-.01.37-.03.74-.09,1.11-.17.36-.07.74-.15,1.08-.28.35-.13.67-.32.99-.5.22-.13.26-.44.2-.68-.07-.27-.28-.46-.57-.29"/>
      <path class="cls-1" d="M23.38,34.49c-.4.09-.81.06-1.21.11,0-.3-.06-.6-.06-.9v-.9c0-.33-.14-.53-.35-.55-.22-.02-.4.15-.4.5,0,.3-.11.6-.11.89s.08.6.08.89c0,.3-.09.59-.1.89,0,.3.02.6,0,.89-.01.3-.07.59-.09.89-.03.3.07.6.03.9-.04.35.1.51.32.52.21,0,.48-.14.52-.47.04-.3.08-.6.1-.9.03-.3,0-.6,0-.9.02-.3.05-.59.06-.89.25-.05.49-.09.74-.12.26-.03.5-.12.75-.17.23-.05.52-.19.42-.46-.1-.25-.46-.29-.7-.24"/>
      <path class="cls-1" d="M25.4,32.52c-.09.24-.14.47-.19.72-.05.25-.08.48-.11.73-.03.35-.07.75-.05,1.15.02.4.17.77.36,1.08.17.28.4.48.71.59.28.1.61.1.94.09.32,0,.64-.02.95-.08.35-.07.67-.16.92-.24.24-.07.39-.35.41-.6.03-.29-.09-.51-.43-.41-.25.08-.57.18-.91.24-.31.06-.64.1-.94.09-.33-.02-.61-.17-.84-.37-.2-.18-.27-.6-.26-.98.31,0,.64,0,.94-.02.3-.02.6-.07.91-.1.3-.03.6-.08.9-.11.51-.06.5-1.03-.08-.96-.28.03-.57.09-.85.12-.29.03-.57.01-.86.03-.28.02-.62.07-.91.07.06-.41.18-.89.38-1.25.34-.03.72,0,1.06,0,.34-.01.69-.06,1.03-.06.26,0,.52-.18.59-.43.09-.28-.04-.57-.35-.57s-.63-.07-.94-.06c-.31,0-.63.05-.93.07-.31.02-.63.03-.94.07-.31.04-.62.14-.8.21-.24.09-.39.31-.42.56-.03.28.09.57.43.48.15-.03.11-.02.26-.05"/>
      <path class="cls-1" d="M29.63,37.73c-.32.11-.66.16-1,.22-.34.05-.67.1-1.02.12-.34.02-.69,0-1.03.01-.35,0-.69.06-1.03.06-.26,0-.49.22-.56.47-.07.28.04.57.36.57.35,0,.72.03,1.09.02.36,0,.73.02,1.09,0s.73-.05,1.09-.11c.36-.06.7-.2,1.04-.32.24-.08.4-.34.42-.59.03-.29-.12-.56-.46-.45"/>
      <path class="cls-1" d="M33.99,36.48c-.43.17-.89.28-1.35.38-.11.02-.25.11-.37.12-.02-.12.03-.27.02-.38-.02-.29-.07-.58-.07-.88,0-.29-.05-.59-.04-.88.01-.29.11-.58.13-.87.03-.29-.01-.59.02-.88.03-.27-.19-.42-.47-.46-.29-.04-.58.04-.61.31-.05.39-.04.79-.06,1.18-.02.39-.04.79-.04,1.18,0,.37,0,.74.02,1.11.01.3-.08.72.08.99.13.23.4.37.68.41.28.04.59-.01.82-.04.34-.05.68-.11,1.01-.2.33-.09.63-.27.95-.4.25-.1.29-.42.11-.59-.22-.21-.57-.21-.84-.1"/>
      <path class="cls-1" d="M37.61,32.55c0-.23-.23-.53-.5-.47-.29.07-.38.42-.38.67,0,.35.03.71.04,1.06-.4.04-.81.08-1.21.11-.4.03-.79.08-1.19.13-.27.04-.6.14-.65.43-.05.25.22.5.47.47.29-.04.57-.12.85-.14.29-.03.58-.04.86-.06.29-.02.56-.04.84-.08,0,.3.05.59.06.89,0,.3,0,.6.01.91,0,.3-.01.61-.01.91,0,.23.22.53.48.46.3-.07.41-.42.41-.67,0-.31-.09-.62-.09-.92s.07-.62.06-.92c0-.31-.05-.62-.05-.93,0-.31-.07-.62-.07-.92,0-.31.06-.62.06-.92"/>
      <path class="cls-5" d="M48.15,19.74c-.14-.09-.34-.18-.36-.42-.02-.24-.06-.6-.07-.71-.02-.13-.06-.34-.23-.38-.17-.04-.27.04-.36.11-.08.07-.43.36-.49.41-.1.09-.33.14-.41.13-.12,0-.81-.23-.95-.24-.13,0-.34.04-.38.28-.04.24.33.72.4.85.09.16.03.29-.04.43-.04.09-.2.33-.29.48-.09.15-.19.33-.15.49.04.17.18.26.38.27.14,0,.65-.02.8,0,.24.03.31.14.47.28.15.14.32.36.44.46.13.1.45.22.57-.18.08-.24.1-.49.19-.68.15-.33.51-.41.68-.47.4-.13.6-.25.61-.46.02-.21-.15-.31-.33-.42-.18-.11-.33-.16-.48-.25"/>
      <path class="cls-3" d="M32.17,17.05s.02.05.04.08c.19.41.84.97,1.62.68.39-.18.61-.24.8-.51.04-.12.12-.22.17-.34.18-.47.02-1.12-.05-1.58-.07-.44-.51-.94-1.03-1.04-1.37-.15-1.7,1.45-1.71,1.95,0,.23.06.53.16.76"/>
      <path class="cls-4" d="M38.22,18.19c-.89.23-1.82.47-2.68.64-1.28.26-2.27.37-3.54.03-1.32-.36-4.37-1.58-5.14-1.86-.77-.28-1.52-.6-1.9-.06-.2.64-.05.98.41,1.35.57.45,3.52,2.77,4.46,3.41.18.12.17.23.12.33-.64,1.27-2.3,4.44-2.58,5.01-.2.39-.24.88.26,1.42.15.12.73.18,1.16-.22,1.44-1.21,3.32-3.57,4.18-4.52.49.48,4.65,2.79,4.65,2.79.33.05.72.14,1.38-.32.02-.39-2.98-4.29-2.98-4.29-.11-.26-.02-.37.13-.42.65-.23,2.2-.75,3-1.02,0,0-.02-.04-.04-.09-.22-.49-.61-1.38-.88-2.19,0,0,0,0,0-.01"/>
      <path class="cls-5" d="M53.85,24.45c-.14-.57-.41-.74-1.09-.84,0,0-5.85-.03-6.69-.14-1.12-.14-1.33-.42-1.8-.99-.54-.65-1.5-1.89-2.41-3.02,0,0,0,0-.01,0-.84.35-1.89.74-2.69,1.02,0,0,0,0,0,0,.24.51,1.95,4.09,2,4.21.1.24,0,.35-.17.53l-3.95,3.46c-.69.64-.93,1.05-.81,1.34.25.44.74.59,1.28.56,0,0,4.86-1.99,5.51-2.22.87,1.28,3.43,4.66,4.31,5.73.55.31,1.56.22,1.74.14.28-.42-1.77-5.39-2.3-6.87-.09-.25-.05-.35.29-.42,1.73-.35,6.02-1.4,6.13-1.48.34-.22.73-.24.67-1.01"/>
      <path class="cls-2" d="M43.57,17.49c-.27-.58-1.15-.42-1.53-.36-.45.07-1.07.25-1.58.38-.16-.12-.81-.87-.98-1.01-.34-.27-.67-.49-1.09-.27-.25.13-.5.69-.45.97.06.28.16.63.28.99.02.04.03.09.05.14.27.77.63,1.59.83,2.05.01.03.03.07.05.1.79-.28,1.85-.67,2.69-1.02.53-.22.98-.43,1.21-.58.35-.23.76-.89.52-1.4"/>
      <path class="cls-1" d="M22.04,6.64h-4.17v-1.47h4.17v1.47ZM22.91,4.41h-5.92v3h5.92v-3Z"/>
      <polygon class="cls-1" points="22.88 2.79 22.88 .45 17.04 .45 17.04 1.21 22 1.21 22 2.79 16.37 2.79 16.37 3.55 23.54 3.55 23.54 2.79 22.88 2.79"/>
      <path class="cls-1" d="M31.29,4.06v-.76h-7.17v.76h1.64v.82c-.64.27-1.04.69-1.04,1.29,0,1.07,1.34,1.61,2.98,1.61s2.98-.54,2.98-1.61c0-.59-.4-1.02-1.03-1.28v-.83h1.63ZM26.64,4.06h2.14v.58c-.34-.06-.7-.09-1.08-.09s-.73.03-1.06.08v-.58ZM29.77,6.17c0,.6-.92.86-2.06.86s-2.06-.26-2.06-.86.92-.86,2.06-.86,2.06.27,2.06.86M27.71,2.97c1.46,0,2.65-.5,2.65-1.49s-1.19-1.49-2.65-1.49-2.65.49-2.65,1.49,1.19,1.49,2.65,1.49M27.71.74c.95,0,1.73.23,1.73.74s-.77.75-1.73.75-1.73-.23-1.73-.75.77-.74,1.73-.74"/>
      <polygon class="cls-1" points="37.54 6.03 37.54 .57 31.97 .57 31.97 1.33 36.65 1.33 36.65 6.03 31.48 6.03 31.48 6.78 38.19 6.78 38.19 6.03 37.54 6.03"/>
      <path class="cls-1" d="M38.9,3.81v.75h3.17v.62h.89v-.62h3.1v-.75h-7.17ZM44.61,5.4h-4.26v-.51h-.86v2.51h5.98v-2.51h-.86v.51ZM44.61,6.65h-4.26v-.53h4.26v.53ZM45.43,2.7h-5.07v-.41h5.05V.46h-5.91v.74h5.05v.38h-5.05v1.86h5.92v-.74Z"/>
      <path class="cls-1" d="M8.27.45h3.44c1.64,0,2.49.54,2.49,1.73,0,.85-.59,1.43-1.37,1.58v.03c1.12.13,1.66.87,1.66,1.7,0,1.05-.76,1.95-2.66,1.95h-3.55V.45ZM9.38,3.39h2.27c.84,0,1.46-.32,1.46-1.07,0-.65-.31-1.09-1.59-1.09h-2.14v2.15ZM9.38,6.65h2.2c1.37,0,1.73-.53,1.73-1.21,0-.8-.56-1.25-1.79-1.25h-2.14v2.46Z"/>
      <polygon class="cls-1" points=".7 .45 1.82 .45 1.82 3.58 5.58 .45 7.16 .45 3.19 3.61 7.49 7.44 5.91 7.44 1.82 3.69 1.82 7.44 .7 7.44 .7 .45"/>
    </g>
  </g>
</svg>